<svg width="35" height="35" viewBox="0 0 35 35" fill="none" xmlns="http://www.w3.org/2000/svg">
<path d="M24.5049 14.3418C24.9338 14.3418 25.2366 14.6115 25.2366 14.9461V21.7943C25.2366 22.3746 26.1055 22.3746 26.1055 21.7943V20.5446C26.1055 20.3473 26.2206 20.154 26.4537 20.0346C26.6852 19.9147 26.9902 19.9147 27.2214 20.0346C27.4545 20.154 27.572 20.3473 27.572 20.5446V21.5311C27.5501 22.1329 28.4628 22.1329 28.439 21.5311V21.005C28.439 20.8077 28.5549 20.6106 28.7881 20.4907C29.0193 20.3732 29.3261 20.3732 29.5595 20.4907C29.7907 20.6106 29.9061 20.8077 29.9061 20.9989V21.6803C29.8786 22.2846 30.8006 22.2846 30.7732 21.6803V21.1439C30.8148 21.0998 30.865 21.0582 30.9307 21.0245C31.1259 20.9273 31.3865 20.9273 31.5801 21.0245C31.7753 21.122 31.861 21.2736 31.861 21.4176V24.632C31.853 26.3982 31.4463 27.7453 30.6771 28.6324C29.908 29.5211 28.6741 30.0058 27.1971 30.002C25.72 29.9983 24.9228 29.7248 24.2395 29.2367C23.5556 28.7505 23.0592 28.0271 22.6507 27.0818L20.4787 22.0457C20.0758 21.157 20.4787 20.8715 21.0245 21.1727C21.4176 21.3901 21.6331 21.7487 21.8219 22.0876L22.976 23.8078C23.2152 24.1707 23.7774 23.9992 23.7733 23.5648L23.7736 14.946C23.7741 14.4881 24.2102 14.342 24.505 14.342L24.5049 14.3418ZM24.5049 13.4731C24.236 13.4731 23.9668 13.5348 23.7217 13.6603C23.2315 13.914 22.9025 14.4024 22.9025 14.9461V22.1416L22.5423 21.6054C22.3284 21.2885 21.8443 20.6364 21.4421 20.4134C21.0295 20.1821 20.5826 20.1341 20.2023 20.224C19.5985 20.3653 19.363 20.7178 19.3414 21.2759C19.3235 21.7002 19.5446 22.0692 19.6842 22.3902L21.8546 27.4264C22.3008 28.4585 22.8843 29.3335 23.7359 29.9431C24.5874 30.5493 25.6889 30.8622 27.0922 30.8444C28.9339 30.8703 30.3823 30.2985 31.3313 29.2C32.2833 28.0998 32.7247 26.5313 32.7303 24.6317V21.4172C32.7303 20.9186 32.4192 20.4725 31.9711 20.2474C31.5225 20.0239 30.9941 20.0239 30.5439 20.2474C30.0475 19.5053 29.0848 19.3603 28.3914 19.7186C28.3358 19.7488 28.28 19.7825 28.2285 19.8188C28.0851 19.5856 27.8757 19.3902 27.6199 19.2585C27.1478 19.0155 26.5854 19.0099 26.1056 19.2364V14.946C26.1056 14.4023 25.7769 13.9139 25.2864 13.6602C25.0431 13.5347 24.774 13.4733 24.505 13.4733L24.5049 13.4731Z" fill="white"/>
<path fill-rule="evenodd" clip-rule="evenodd" d="M5.46543 4.15015C3.72309 4.15015 2.28809 5.50722 2.28809 7.20151V20.1789C2.28809 21.8729 3.72309 23.2299 5.46543 23.2299H17.9034C18.1488 23.2403 18.3542 23.0427 18.3542 22.796C18.3542 22.5503 18.1486 22.3535 17.9034 22.3632L5.46543 22.3629C4.1677 22.3629 3.15536 21.384 3.15536 20.1786V7.20126C3.15536 5.99533 4.1679 5.01697 5.46543 5.01697H27.3869C28.6846 5.01697 29.6949 5.99588 29.6949 7.20126V17.8058C29.6853 18.0515 29.8823 18.2566 30.1277 18.2566C30.375 18.2566 30.5723 18.0515 30.5622 17.8058L30.5619 7.20126C30.5619 5.50725 29.1293 4.1499 27.387 4.1499H5.46547L5.46543 4.15015Z" fill="white"/>
<path fill-rule="evenodd" clip-rule="evenodd" d="M22.327 10.543C21.6213 10.543 21.0415 11.1211 21.0415 11.8268V15.5497C21.0335 15.7965 21.2282 16.0021 21.476 16.0021C21.7214 16.0021 21.9184 15.7965 21.9088 15.5497V11.8268C21.9088 11.5873 22.0883 11.41 22.3275 11.41H26.8069C27.0462 11.41 27.2256 11.5873 27.2256 11.8268V15.5497C27.216 15.7965 27.4131 16.0021 27.6584 16.0021C27.9057 16.0021 28.103 15.7965 28.0929 15.5497V11.8268C28.0929 11.1211 27.5126 10.543 26.8074 10.543H22.327Z" fill="white"/>
<path fill-rule="evenodd" clip-rule="evenodd" d="M6.48607 7.6359H17.0394C17.4939 7.6359 17.8445 7.99025 17.8445 8.44288V9.10271C17.8445 9.55692 17.4939 9.90777 17.0394 9.90777H6.48607C6.03159 9.90777 5.68101 9.5569 5.68101 9.10271V8.44288C5.68101 7.99027 6.03135 7.6359 6.48607 7.6359ZM6.48607 6.76855C5.56534 6.76855 4.81421 7.52345 4.81421 8.44281V9.10264C4.81421 10.0215 5.56534 10.7769 6.48607 10.7769H17.0394C17.9601 10.7769 18.7113 10.022 18.7113 9.10264V8.44281C18.7113 7.52372 17.9601 6.76855 17.0394 6.76855H6.48607Z" fill="white"/>
<path fill-rule="evenodd" clip-rule="evenodd" d="M6.67118 12.5538C7.22954 12.5538 7.66 12.9885 7.66 13.6881C7.66 14.3896 7.22955 14.8243 6.67118 14.8243C6.11523 14.8243 5.68079 14.3896 5.68079 13.6881C5.68079 12.9885 6.11498 12.5538 6.67118 12.5538ZM6.67118 11.6875C5.65085 11.6875 4.81372 12.5225 4.81372 13.6884C4.81372 14.8564 5.65112 15.6914 6.67118 15.6914C7.69363 15.6914 8.53049 14.8564 8.53049 13.6884C8.53076 12.5225 7.69363 11.6875 6.67118 11.6875Z" fill="white"/>
<path fill-rule="evenodd" clip-rule="evenodd" d="M16.8554 12.5538C17.4114 12.5538 17.8434 12.9885 17.8434 13.6881C17.8434 14.3896 17.4113 14.8243 16.8554 14.8243C16.2994 14.8243 15.8628 14.3896 15.8628 13.6881C15.8631 12.9885 16.2994 12.5538 16.8554 12.5538ZM16.8554 11.6875C15.8329 11.6875 14.9961 12.5225 14.9961 13.6884C14.9961 14.8564 15.8335 15.6914 16.8554 15.6914C17.8776 15.6914 18.7105 14.8564 18.7105 13.6884C18.7107 12.5225 17.8779 11.6875 16.8554 11.6875Z" fill="white"/>
<path fill-rule="evenodd" clip-rule="evenodd" d="M11.7613 12.5538C12.3189 12.5538 12.7539 12.9885 12.7539 13.6881C12.7539 14.3896 12.3189 14.8243 11.7613 14.8243C11.2053 14.8243 10.7701 14.3896 10.7701 13.6881C10.7704 12.9885 11.2053 12.5538 11.7613 12.5538ZM11.7613 11.6875C10.7404 11.6875 9.90356 12.5225 9.90356 13.6884C9.90356 14.8564 10.741 15.6914 11.7613 15.6914C12.7837 15.6914 13.6206 14.8564 13.6206 13.6884C13.6209 12.5225 12.784 11.6875 11.7613 11.6875Z" fill="white"/>
<path fill-rule="evenodd" clip-rule="evenodd" d="M6.67118 17.4691C7.22954 17.4691 7.66 17.9038 7.66 18.6053C7.66 19.3068 7.22955 19.7389 6.67118 19.7389C6.11523 19.7389 5.68079 19.3068 5.68079 18.6053C5.68079 17.9038 6.11498 17.4691 6.67118 17.4691ZM6.67118 16.6021C5.65085 16.6021 4.81372 17.4395 4.81372 18.6053C4.81372 19.7733 5.65112 20.6062 6.67118 20.6062C7.69363 20.6062 8.53049 19.7728 8.53049 18.6053C8.53076 17.4392 7.69363 16.6021 6.67118 16.6021Z" fill="white"/>
<path fill-rule="evenodd" clip-rule="evenodd" d="M16.8554 17.4691C17.4114 17.4691 17.8434 17.9038 17.8434 18.6053C17.8434 19.3068 17.4113 19.7389 16.8554 19.7389C16.2994 19.7389 15.8628 19.3068 15.8628 18.6053C15.8631 17.9038 16.2994 17.4691 16.8554 17.4691ZM16.8554 16.6021C15.8329 16.6021 14.9961 17.4395 14.9961 18.6053C14.9961 19.7733 15.8335 20.6062 16.8554 20.6062C17.8776 20.6062 18.7105 19.7728 18.7105 18.6053C18.7107 17.4392 17.8779 16.6021 16.8554 16.6021Z" fill="white"/>
<path fill-rule="evenodd" clip-rule="evenodd" d="M11.7613 17.4691C12.3189 17.4691 12.7539 17.9038 12.7539 18.6053C12.7539 19.3068 12.3189 19.7389 11.7613 19.7389C11.2053 19.7389 10.7701 19.3068 10.7701 18.6053C10.7704 17.9038 11.2053 17.4691 11.7613 17.4691ZM11.7613 16.6021C10.7404 16.6021 9.90356 17.4395 9.90356 18.6053C9.90356 19.7733 10.741 20.6062 11.7613 20.6062C12.7837 20.6062 13.6206 19.7728 13.6206 18.6053C13.6209 17.4392 12.784 16.6021 11.7613 16.6021Z" fill="white"/>
</svg>
