<svg width="30" height="30" viewBox="0 0 30 30" fill="none" xmlns="http://www.w3.org/2000/svg">
<path d="M13.2632 1.10791H1.97627C1.49608 1.10791 1.10791 1.49609 1.10791 1.97627V10.6587C1.10791 11.1389 1.49609 11.5268 1.97603 11.5268H13.2629C13.7431 11.5268 14.1311 11.1386 14.1311 10.6587L14.1313 1.97627C14.1313 1.49608 13.7434 1.10791 13.2632 1.10791ZM12.3948 9.79033H2.84404V2.84463H12.3948V9.79033Z" fill="white"/>
<path d="M28.0234 1.10791H16.7365C16.2563 1.10791 15.8684 1.49609 15.8684 1.97603V15.868C15.8684 16.3482 16.2566 16.7362 16.7365 16.7362H28.0234C28.5036 16.7362 28.8916 16.348 28.8916 15.868L28.8918 1.97662C28.8918 1.49643 28.5036 1.10826 28.0234 1.10826L28.0234 1.10791ZM27.1553 14.9999H17.6045V2.84463H27.1553V14.9999Z" fill="white"/>
<path d="M13.2632 13.2632H1.97628C1.49609 13.2632 1.10815 13.6514 1.10815 14.1313V28.0233C1.10815 28.5035 1.49634 28.8914 1.97628 28.8914H13.2632C13.7434 28.8914 14.1313 28.5032 14.1313 28.0233V14.1313C14.1313 13.6511 13.7434 13.2632 13.2632 13.2632ZM12.3948 27.1552H2.84405V14.9999H12.3948V27.1552Z" fill="white"/>
<path d="M28.0234 18.4729H16.7365C16.2563 18.4729 15.8684 18.8611 15.8684 19.341V28.0234C15.8684 28.5036 16.2566 28.8916 16.7365 28.8916H28.0234C28.5036 28.8916 28.8916 28.5034 28.8916 28.0234L28.8918 19.341C28.8918 18.8608 28.5036 18.4727 28.0234 18.4727L28.0234 18.4729ZM27.1553 27.1553H17.6045V20.2096H27.1553V27.1553Z" fill="white"/>
</svg>
