<svg width="33" height="33" viewBox="0 0 33 33" fill="none" xmlns="http://www.w3.org/2000/svg">
<path d="M18.5103 11.7217H19.5249V13.3539H18.5103V11.7217Z" fill="white"/>
<path d="M20.5889 7.93018H21.6035V13.3536H20.5889V7.93018Z" fill="white"/>
<path d="M22.6675 5.1748H23.6821V13.3539H22.6675V5.1748Z" fill="white"/>
<path d="M24.7468 10.3916H25.7614V13.3537H24.7468V10.3916Z" fill="white"/>
<path d="M12.3872 14.6146C15.226 14.6146 17.5357 12.3046 17.5357 9.4656C17.5357 6.6269 15.2265 4.31689 12.3872 4.31689C9.54802 4.31689 7.23828 6.62638 7.23828 9.46535C7.23828 12.3041 9.54854 14.6146 12.3872 14.6146ZM12.3872 5.33139C14.6668 5.33139 16.5208 7.1859 16.5208 9.46496C16.5208 11.7445 14.6663 13.599 12.3872 13.599C10.1082 13.599 8.25316 11.7445 8.25316 9.46496C8.25316 7.18596 10.1082 5.33139 12.3872 5.33139Z" fill="white"/>
<path d="M15.3372 9.14479H12.708V6.51807H11.6931V10.1594H15.3372V9.14479Z" fill="white"/>
<path d="M9.31856 22.9555L10.1091 23.7241L10.8098 22.8726L13.7409 19.3108L14.3686 18.5477L12.9156 17.2856L12.1286 16.6021L9.86875 19.3483L9.69326 19.1779L8.94599 18.4508L8.23978 19.2175L7.60306 19.9086L6.93384 20.6352L7.64205 21.3238L9.31856 22.9555ZM8.98521 19.905L9.95124 20.8446L12.2496 18.0515L12.9569 18.6658L10.0257 22.2276L8.34848 20.5964L8.98521 19.905Z" fill="white"/>
<path d="M9.31856 29.4042L10.1091 30.1729L10.8098 29.3214L13.7409 25.7596L14.3686 24.9964L12.9156 23.7343L12.1286 23.0508L9.86875 25.7971L9.69326 25.6266L8.94599 24.8995L8.23978 25.6662L7.60306 26.3573L6.93384 27.0839L7.64205 27.7725L9.31856 29.4042ZM8.98521 26.3545L9.95124 27.2941L12.2496 24.501L12.9569 25.1153L10.0257 28.6771L8.34848 27.0459L8.98521 26.3545Z" fill="white"/>
<path d="M16.0178 18.7393H25.359V19.7539H16.0178V18.7393Z" fill="white"/>
<path d="M16.0178 20.5186H25.359V21.5332H16.0178V20.5186Z" fill="white"/>
<path d="M16.0178 25.1875H25.359V26.2021H16.0178V25.1875Z" fill="white"/>
<path d="M16.0178 26.9678H25.359V27.9824H16.0178V26.9678Z" fill="white"/>
<mask id="mask0_17_1626" style="mask-type:luminance" maskUnits="userSpaceOnUse" x="3" y="0" width="27" height="33">
<path d="M3.54492 0.263672H29.4551V32.7358H3.54492V0.263672Z" fill="white"/>
</mask>
<g mask="url(#mask0_17_1626)">
<path d="M29.4378 0.22168H3.56177V32.7782H29.4378V0.22168ZM28.4231 31.7631H4.57678V1.23617H28.4231V31.7631Z" fill="white"/>
</g>
<path d="M1.52759 25.3921H2.54221V26.762H1.52759V25.3921Z" fill="white"/>
<path d="M1.52759 14.4321H2.54221V15.802H1.52759V14.4321Z" fill="white"/>
<path d="M1.52759 11.6929H2.54221V13.0628H1.52759V11.6929Z" fill="white"/>
<path d="M1.52759 28.1313H2.54221V29.5012H1.52759V28.1313Z" fill="white"/>
<path d="M1.52759 17.1729H2.54221V18.5427H1.52759V17.1729Z" fill="white"/>
<path d="M1.52759 6.21338H2.54221V7.58275H1.52759V6.21338Z" fill="white"/>
<path d="M1.52759 19.9126H2.54221V21.282H1.52759V19.9126Z" fill="white"/>
<path d="M1.52759 22.6519H2.54221V24.0217H1.52759V22.6519Z" fill="white"/>
<path d="M1.52759 8.95264H2.54221V10.3225H1.52759V8.95264Z" fill="white"/>
<path d="M1.52759 3.47314H2.54221V4.84303H1.52759V3.47314Z" fill="white"/>
<path d="M30.4573 11.7046H31.4719V13.0745H30.4573V11.7046Z" fill="white"/>
<path d="M30.4573 8.96484H31.4719V10.3347H30.4573V8.96484Z" fill="white"/>
<path d="M30.4573 3.48486H31.4719V4.85475H30.4573V3.48486Z" fill="white"/>
<path d="M30.4573 14.4448H31.4719V15.8147H30.4573V14.4448Z" fill="white"/>
<path d="M30.4573 28.1436H31.4719V29.5134H30.4573V28.1436Z" fill="white"/>
<path d="M30.4573 6.2251H31.4719V7.59447H30.4573V6.2251Z" fill="white"/>
<path d="M30.4573 17.1846H31.4719V18.5545H30.4573V17.1846Z" fill="white"/>
<path d="M30.4573 22.6641H31.4719V24.0339H30.4573V22.6641Z" fill="white"/>
<path d="M30.4573 25.4033H31.4719V26.7732H30.4573V25.4033Z" fill="white"/>
<path d="M30.4573 19.9238H31.4719V21.2932H30.4573V19.9238Z" fill="white"/>
</svg>
