<svg width="35" height="35" viewBox="0 0 35 35" fill="none" xmlns="http://www.w3.org/2000/svg">
<path fill-rule="evenodd" clip-rule="evenodd" d="M8.89018 13.0871C11.3463 12.5883 13.1953 10.4168 13.1953 7.81331C13.1953 4.84125 10.7859 2.43213 7.8138 2.43213C4.84174 2.43213 2.43262 4.84125 2.43262 7.81331C2.43262 10.4168 4.28126 12.5884 6.73768 13.0871V21.9123C4.28126 22.4108 2.43262 24.5823 2.43262 27.1859C2.43262 30.1579 4.84174 32.5671 7.8138 32.5671C10.7859 32.5671 13.1953 30.1579 13.1953 27.1859C13.1953 24.5823 11.3463 22.4108 8.89018 21.9123V13.0871Z" fill="white"/>
<path fill-rule="evenodd" clip-rule="evenodd" d="M20.8557 4.00981C21.2752 3.5887 21.2742 2.90724 20.8531 2.48772C20.4319 2.06822 19.7505 2.06929 19.331 2.49039L16.2951 5.53717C15.7341 6.1014 15.4027 6.85124 15.3608 7.64161C15.3517 7.69769 15.3472 7.75483 15.3472 7.81331C15.3472 7.87179 15.3517 7.9292 15.3608 7.98528C15.4027 8.77565 15.7341 9.52548 16.2951 10.0897L19.331 13.1365C19.7505 13.5573 20.4319 13.5587 20.8531 13.1392C21.2742 12.7194 21.2752 12.0382 20.8557 11.6171L18.1379 8.88968H20.2979C21.5212 8.88968 22.3738 8.89048 23.0379 8.94468C23.6889 8.99782 24.0633 9.09716 24.3468 9.24162C24.9543 9.55111 25.448 10.0451 25.7576 10.6526C25.902 10.9359 26.0014 11.3103 26.0545 11.9616C26.1087 12.6254 26.1095 13.4781 26.1095 14.7013V21.9125C23.6534 22.4111 21.8047 24.5826 21.8047 27.1861C21.8047 30.1582 24.2138 32.5673 27.1859 32.5673C30.158 32.5673 32.5671 30.1582 32.5671 27.1861C32.5671 24.5826 30.7184 22.4111 28.262 21.9125V14.6555C28.262 13.4891 28.262 12.5484 28.1998 11.7862C28.1357 11.0019 28.0003 10.3127 27.6756 9.67536C27.1597 8.66282 26.3365 7.83957 25.3239 7.32366C24.6865 6.99896 23.9976 6.86357 23.2131 6.79948C22.4512 6.73727 21.5105 6.73727 20.3438 6.73727H18.1378L20.8557 4.00981Z" fill="white"/>
</svg>
