<svg width="40" height="40" viewBox="0 0 40 40" fill="none" xmlns="http://www.w3.org/2000/svg">
<path d="M20.236 3.8623C11.1829 3.8623 3.90161 11.1832 3.90161 20.1967C3.90161 29.2107 11.1831 36.5311 20.236 36.5311C29.2889 36.5311 36.5704 29.2102 36.5704 20.1967C36.5704 11.1834 29.2495 3.8623 20.236 3.8623ZM30.1547 12.8365L20.6297 28.5021C20.4723 28.7777 20.1573 28.8171 19.9211 28.6596L17.2841 26.8884L14.6471 28.6596C14.4502 28.8171 14.1353 28.6596 14.1353 28.384V24.7237L26.2189 15.6706L11.9704 23.267L8.8216 21.1021C8.46729 20.8659 8.54603 20.3541 8.93971 20.1969L29.9975 12.6005C30.1153 12.5215 30.2728 12.7183 30.1547 12.8364L30.1547 12.8365Z" fill="white"/>
</svg>
