<svg width="61" height="60" viewBox="0 0 61 60" fill="none" xmlns="http://www.w3.org/2000/svg">
<mask id="mask0_10_1356" style="mask-type:luminance" maskUnits="userSpaceOnUse" x="0" y="25" width="24" height="18">
<path d="M0.506836 25.2344H23.9337V42.4297H0.506836V25.2344Z" fill="white"/>
</mask>
<g mask="url(#mask0_10_1356)">
<path d="M23.844 33.939L6.52385 25.2461L0.495117 33.1675L6.5891 36.2113L6.64247 36.2412L18.9371 42.3886L23.844 33.939Z" fill="#FFF3B5"/>
</g>
<path d="M25.4111 17.3198V27.5733C25.4111 27.9354 25.1203 28.2262 24.7582 28.2262C24.3962 28.2262 24.1054 27.9354 24.1054 27.5733V17.3198L7.87109 24.4577L24.7638 32.9311L41.6505 24.4577L25.4111 17.3198Z" fill="#FFF3B5"/>
<path d="M42.9218 25.2886L25.7559 33.8983L31.1197 41.0127L42.8744 35.18L47.2952 32.9846L42.9218 25.2886Z" fill="#FFF3B5"/>
<path d="M30.4013 42.2339L25.417 35.6177V54.4513L42.5358 45.8652V36.8166L31.2201 42.4299C30.9298 42.5665 30.5912 42.4892 30.4016 42.2339L30.4013 42.2339Z" fill="#FFF3B5"/>
<path d="M19.1982 43.9075C19.0975 43.9075 19.0022 43.8835 18.9075 43.8362L6.9873 37.8793V45.86L24.1061 54.4517V36.1045L19.7686 43.5809C19.6444 43.7884 19.4245 43.9071 19.1991 43.9071L19.1982 43.9075Z" fill="#FFF3B5"/>
<mask id="mask1_10_1356" style="mask-type:luminance" maskUnits="userSpaceOnUse" x="12" y="5" width="48" height="36">
<path d="M12.6279 5.09473H59.8445V40.6632H12.6279V5.09473Z" fill="white"/>
</mask>
<g mask="url(#mask1_10_1356)">
<path d="M44.0907 9.0896H15.0812L18.1728 6.34812C18.4457 6.10475 18.4696 5.69529 18.2262 5.42247C17.9888 5.14965 17.5734 5.12573 17.3006 5.36312L12.9157 9.24974C12.7731 9.37442 12.6963 9.55246 12.6963 9.74201C12.6963 9.93202 12.7796 10.1041 12.9157 10.2288L17.3006 14.1154C17.4252 14.2281 17.5794 14.2815 17.7339 14.2815C17.912 14.2815 18.096 14.2042 18.2207 14.062C18.4581 13.7892 18.4342 13.3797 18.1673 13.1364L15.0757 10.3949H44.0793C52.0481 10.3949 58.534 16.8745 58.534 24.8496C58.534 32.8183 52.0485 39.3043 44.0793 39.3043C43.9905 39.3043 43.9072 39.3222 43.8299 39.3517V40.562C43.9072 40.5975 43.9901 40.6094 44.0793 40.6094C52.7723 40.6094 59.8448 33.5364 59.8448 24.8439C59.8563 16.1639 52.7833 9.0913 44.0899 9.0913L44.0907 9.0896Z" fill="#FFF3B5"/>
</g>
</svg>
