<svg width="53" height="50" viewBox="0 0 53 50" fill="none" xmlns="http://www.w3.org/2000/svg">
<path d="M12.5449 49.7507L22.2259 45.5813V30.7437L12.5449 34.913V49.7507Z" fill="#FFF3B5"/>
<path d="M12.5449 22.5903L22.2259 26.7597V11.9208L12.5449 7.75146V22.5903Z" fill="#FFF3B5"/>
<path d="M23.5133 1.92041L14.501 5.80168L23.5133 9.68249L32.5257 5.80168L23.5133 1.92041Z" fill="#FFF3B5"/>
<path d="M0.292969 45.5808L9.97442 49.7502V34.9125L0.292969 30.7427V45.5808Z" fill="#FFF3B5"/>
<path d="M11.2599 24.9111L2.24707 28.7933L11.2599 32.6741L20.2722 28.7933L11.2599 24.9111Z" fill="#FFF3B5"/>
<path d="M37.0508 49.7507L46.7327 45.5813V30.7437L37.0508 34.9135V49.7507Z" fill="#FFF3B5"/>
<path d="M24.7988 26.7601L34.4807 22.5908V7.75195L24.7988 11.9218V26.7601Z" fill="#FFF3B5"/>
<path d="M35.7657 24.9111L26.7529 28.7933L35.7657 32.6741L44.7786 28.7933L35.7657 24.9111Z" fill="#FFF3B5"/>
<path d="M24.7988 45.5808L34.4807 49.7502V34.9125L24.7988 30.7427V45.5808Z" fill="#FFF3B5"/>
<path d="M51.8203 9.51112C51.3181 9.01074 50.5043 9.01074 50.0021 9.51112L48.5809 10.9273V1.36898C48.5809 0.660919 48.0054 0.0878906 47.2952 0.0878906C46.5851 0.0878906 46.0096 0.660872 46.0096 1.36898V10.9277L44.5884 9.51159C44.0862 9.01121 43.2724 9.01121 42.7702 9.51159C42.268 10.012 42.268 10.8229 42.7702 11.3233L46.3864 14.9266C46.6377 15.177 46.9665 15.302 47.2953 15.302C47.6241 15.302 47.9533 15.177 48.2041 14.9266L51.8203 11.3233C52.3225 10.8225 52.3225 10.0115 51.8203 9.51112Z" fill="#FFF3B5"/>
</svg>
