<svg width="38" height="38" viewBox="0 0 38 38" fill="none" xmlns="http://www.w3.org/2000/svg">
<path d="M6.05623 26.4724L8.21295 25.2273C7.15273 23.3933 6.53575 21.2716 6.53575 19.0005C6.53575 12.1158 12.1155 6.53692 19.0008 6.53692C21.272 6.53692 23.3951 7.1527 25.2265 8.21671L24.2982 9.82607L30.1724 9.62052L27.413 4.42869L26.4719 6.05832C24.2728 4.78383 21.7263 4.04395 19.001 4.04395C10.739 4.04395 4.04297 10.7396 4.04297 19.0005C4.04297 21.7254 4.78284 24.2723 6.05615 26.4728L6.05623 26.4724Z" fill="white"/>
<path d="M25.232 15.2607C23.1664 15.2607 21.4927 16.9344 21.4927 19.0001C21.4927 21.0646 23.1664 22.7395 25.232 22.7395C27.2965 22.7395 28.9714 21.0646 28.9714 19.0001C28.9711 16.9344 27.2966 15.2607 25.232 15.2607ZM25.232 20.2462C24.5429 20.2462 23.9854 19.6875 23.9854 18.9998C23.9854 18.311 24.5429 17.7535 25.232 17.7535C25.9209 17.7537 26.4784 18.3113 26.4784 19.0001C26.4784 19.6875 25.9209 20.2462 25.232 20.2462Z" fill="white"/>
<path d="M14.014 10.2759C11.9484 10.2759 10.2747 11.9496 10.2747 14.0152C10.2747 16.0797 11.9484 17.7546 14.014 17.7546C16.0785 17.7546 17.7534 16.0798 17.7534 14.0152C17.7534 11.9496 16.0786 10.2759 14.014 10.2759ZM14.014 15.2613C13.3252 15.2613 12.7677 14.7026 12.7677 14.0149C12.7677 13.3261 13.3252 12.7686 14.014 12.7686C14.7032 12.7686 15.2604 13.3261 15.2604 14.0149C15.2604 14.7026 14.7029 15.2613 14.014 15.2613Z" fill="white"/>
<path d="M31.9424 11.5278L29.7856 12.773C30.8467 14.6058 31.4636 16.7292 31.4636 19.0004C31.4636 20.7739 31.0876 22.4585 30.4194 23.9858H23.9855C21.2321 23.9858 19.0001 26.2185 19.0001 28.9715H21.4931C21.4931 27.5959 22.6105 26.4785 23.9855 26.4785H28.9541C26.6791 29.5009 23.0725 31.464 19.0006 31.464C16.7283 31.464 14.6055 30.847 12.7723 29.7842L13.7024 28.1737L7.8269 28.381L10.5864 33.5728L11.5272 31.9417C13.7268 33.2171 16.2757 33.9572 19.001 33.9572C27.2586 33.9572 33.9568 27.2601 33.9568 19.0006C33.9568 16.2751 33.2166 13.7291 31.9421 11.5283L31.9424 11.5278Z" fill="white"/>
<path d="M15.2609 19H9.02881V21.493L15.2609 21.4927C16.6351 21.4927 17.7539 22.6101 17.7539 23.9851H20.2469C20.2463 21.2321 18.0142 19 15.2609 19Z" fill="white"/>
</svg>
